<svg xmlns="http://www.w3.org/2000/svg" viewBox="0 0 64 64" role="img" aria-label="Gold trophy">
  <defs>
    <linearGradient id="gold" x1="0" y1="0" x2="0" y2="1">
      <stop offset="0%" stop-color="#f6d365" />
      <stop offset="55%" stop-color="#f2c94c" />
      <stop offset="100%" stop-color="#d9a441" />
    </linearGradient>
    <linearGradient id="shine" x1="0" y1="0" x2="1" y2="1">
      <stop offset="0%" stop-color="#fff6cf" stop-opacity="0.9" />
      <stop offset="100%" stop-color="#f6d365" stop-opacity="0" />
    </linearGradient>
  </defs>
  <rect width="64" height="64" rx="14" fill="#0c0f14" />
  <path
    d="M20 18h24c0 9-4 16-12 18-8-2-12-9-12-18z"
    fill="url(#gold)"
  />
  <path
    d="M18 20h-6c0 8 6 13 12 14l-1-4c-4-1-7-5-7-10h2z"
    fill="url(#gold)"
  />
  <path
    d="M46 20h6c0 8-6 13-12 14l1-4c4-1 7-5 7-10h-2z"
    fill="url(#gold)"
  />
  <rect x="29" y="34" width="6" height="9" rx="2" fill="url(#gold)" />
  <rect x="22" y="43" width="20" height="5" rx="2.5" fill="url(#gold)" />
  <rect x="19" y="48" width="26" height="6" rx="3" fill="url(#gold)" />
  <path
    d="M26 20c1.5 5 5.5 9 10 11"
    stroke="url(#shine)"
    stroke-width="3"
    stroke-linecap="round"
  />
</svg>
